<svg version="1.1" id="Layer_1" xmlns="http://www.w3.org/2000/svg" xmlns:xlink="http://www.w3.org/1999/xlink" x="0px" y="0px" viewBox="-48 38 36.1 21.6" style="enable-background:new -48 38 36.1 21.6;" xml:space="preserve">
<g>
	<path d="M-12.7,38h-34.5c-0.4,0-0.8,0.4-0.8,0.8v20c0,0.4,0.4,0.8,0.8,0.8h34.5c0.4,0,0.8-0.4,0.8-0.8v-20
		C-11.9,38.4-12.3,38-12.7,38z M-46.4,40.3l12.1,8.5l-12.1,8.5V40.3z M-30,49.9l-14.7-10.3h29.4L-30,49.9z M-32.8,49.8l2.4,1.7
		c0.1,0.1,0.3,0.2,0.4,0.2c0.2,0,0.3,0,0.4-0.2l2.4-1.7l11.9,8.3h-29.3L-32.8,49.8z M-25.7,48.8l12.1-8.5v17L-25.7,48.8z"/>
</g>
</svg>